<svg width="17" height="16" viewBox="0 0 17 16" fill="none" xmlns="http://www.w3.org/2000/svg">
<g id="pocket" clip-path="url(#clip0_1_111)">
<path id="Vector" d="M3.1045 2H13.9441C14.3035 2 14.6481 2.14048 14.9022 2.39052C15.1563 2.64057 15.2991 2.97971 15.2991 3.33333V7.33333C15.2991 9.10144 14.5853 10.7971 13.3148 12.0474C12.0443 13.2976 10.3211 14 8.52432 14C7.63464 14 6.75368 13.8276 5.93172 13.4925C5.10977 13.1575 4.36292 12.6664 3.73383 12.0474C2.46331 10.7971 1.74954 9.10144 1.74954 7.33333V3.33333C1.74954 2.97971 1.8923 2.64057 2.1464 2.39052C2.4005 2.14048 2.74514 2 3.1045 2V2Z" stroke="#0768B5" stroke-width="2" stroke-linecap="round" stroke-linejoin="round"/>
<path id="Vector_2" d="M5.81441 6.66663L8.52432 9.33329L11.2342 6.66663" stroke="#0768B5" stroke-width="2" stroke-linecap="round" stroke-linejoin="round"/>
</g>
<defs>
<clipPath id="clip0_1_111">
<rect width="16.2595" height="16" fill="white" transform="translate(0.394592)"/>
</clipPath>
</defs>
</svg>
