<svg width="26" height="26" viewBox="0 0 26 26" fill="none" xmlns="http://www.w3.org/2000/svg">
<g id="mdi:account">
<path id="Vector" d="M13.0006 4.33301C14.1499 4.33301 15.2521 4.78955 16.0648 5.60221C16.8774 6.41487 17.334 7.51707 17.334 8.66634C17.334 9.81561 16.8774 10.9178 16.0648 11.7305C15.2521 12.5431 14.1499 12.9997 13.0006 12.9997C11.8514 12.9997 10.7492 12.5431 9.93652 11.7305C9.12386 10.9178 8.66732 9.81561 8.66732 8.66634C8.66732 7.51707 9.12386 6.41487 9.93652 5.60221C10.7492 4.78955 11.8514 4.33301 13.0006 4.33301ZM13.0006 15.1663C17.789 15.1663 21.6673 17.1055 21.6673 19.4997V21.6663H4.33398V19.4997C4.33398 17.1055 8.21232 15.1663 13.0006 15.1663Z" fill="white"/>
</g>
</svg>
