<svg width="50" height="50" viewBox="0 0 50 50" fill="none" xmlns="http://www.w3.org/2000/svg">
<g id="ph:airplane-in-flight-fill">
<path id="Vector" d="M43.7507 42.1877C43.7507 42.6021 43.586 42.9995 43.293 43.2926C43 43.5856 42.6026 43.7502 42.1882 43.7502H14.0632C13.6488 43.7502 13.2513 43.5856 12.9583 43.2926C12.6653 42.9995 12.5007 42.6021 12.5007 42.1877C12.5007 41.7733 12.6653 41.3759 12.9583 41.0829C13.2513 40.7898 13.6488 40.6252 14.0632 40.6252H42.1882C42.6026 40.6252 43 40.7898 43.293 41.0829C43.586 41.3759 43.7507 41.7733 43.7507 42.1877ZM40.6257 19.5315H30.0397L21.6608 10.4104C21.5895 10.3307 21.5022 10.2669 21.4046 10.2231C21.3071 10.1794 21.2013 10.1567 21.0944 10.1565H17.7936C17.422 10.1513 17.0547 10.2377 16.7243 10.408C16.394 10.5784 16.1105 10.8273 15.8991 11.133C15.6792 11.4325 15.5343 11.7803 15.4765 12.1473C15.4187 12.5143 15.4498 12.8899 15.5671 13.2424L17.6764 19.5315H12.8717L9.19987 15.1174C9.1244 15.0312 9.03128 14.9621 8.92683 14.9149C8.82238 14.8678 8.70901 14.8436 8.5944 14.844H5.23503C4.86814 14.8424 4.50594 14.9264 4.1771 15.0891C3.84827 15.2518 3.56184 15.4889 3.3405 15.7815C3.12353 16.0747 2.97864 16.415 2.91757 16.7747C2.85649 17.1343 2.88094 17.5033 2.98893 17.8518L5.72331 27.0119C6.15083 28.4658 7.03911 29.7414 8.25439 30.6467C9.46968 31.552 10.9462 32.038 12.4616 32.0315H46.8757C47.0829 32.0315 47.2816 31.9492 47.4281 31.8026C47.5746 31.6561 47.6569 31.4574 47.6569 31.2502V26.5627C47.6569 24.6979 46.9161 22.9095 45.5975 21.5909C44.2789 20.2723 42.4905 19.5315 40.6257 19.5315Z" fill="white"/>
</g>
</svg>
