<svg width="28" height="28" viewBox="0 0 28 28" fill="none" xmlns="http://www.w3.org/2000/svg">
<g id="simple-icons:yourtraveldottv">
<path id="Vector" d="M3.04363 7.31033C3.25713 7.02333 3.5383 6.63483 3.76347 6.35717C4.4378 5.59183 4.5253 5.4915 5.13897 4.92567C5.32097 4.77633 5.5368 4.59667 5.74797 4.4275C4.19047 5.74583 3.99213 7.20533 5.4213 8.10717C5.41897 8.10717 5.41897 8.10717 5.41897 8.1095C7.41747 9.3135 11.7971 9.05333 15.2528 7.511C18.6 6.01767 19.8355 3.8815 18.1835 2.61217C16.7333 2.34033 15.0043 2.30883 13.175 2.55383L12.9848 2.24L13.1423 1.71967C14.218 1.62283 15.24 1.64617 16.122 1.79667C16.3355 1.83283 16.6166 1.89467 16.8266 1.939C17.2326 2.03817 17.4531 2.09767 17.718 2.18283C17.9886 2.26333 18.2196 2.34383 18.6221 2.49317C19.0165 2.64833 19.1868 2.71833 19.503 2.87583C19.857 3.03738 20.201 3.2201 20.5331 3.423C23.1651 5.0785 21.5283 8.099 16.8838 10.1687C12.2521 12.2313 6.34997 12.5557 3.70513 10.92C3.70397 10.9177 3.70047 10.9153 3.69347 10.913H3.69813C2.2538 9.99833 2.10213 8.67067 3.04363 7.31033ZM15.0941 18.8837L15.0568 17.024L13.735 15.554C9.36813 16.5433 5.07597 16.331 2.68897 14.9252C2.6808 14.9158 2.66097 14.9065 2.6528 14.8972C1.3018 14.0653 0.968133 12.992 1.06963 11.8253C0.753467 13.5322 0.7278 14.1482 0.7733 15.6088C0.8293 16.5235 1.3578 17.367 2.42063 18.032L2.4288 18.0413C4.9733 19.6233 10.2746 19.9663 15.0941 18.8837ZM20.6066 21.0128C14.4431 23.485 6.72913 23.6308 3.37847 21.343C3.74032 22.2273 4.23268 23.0523 4.83913 23.7907C7.91447 25.8907 14.995 25.7565 20.6498 23.4873C23.9596 22.1608 26.048 20.3957 26.5963 18.7413L26.7503 18.2432C27.1155 16.9808 27.1843 15.9297 27.2426 14.994C27.1761 17.0252 24.7833 19.3352 20.6066 21.0128ZM7.00097 25.774C7.19463 25.9583 7.80363 26.7062 10.8895 27.5322C11.7236 27.7165 13.8236 28.308 17.7028 27.4482L17.7261 27.0947L17.4193 26.614C13.8201 27.4657 9.82197 27.181 7.00097 25.774ZM15.9073 11.0635L19.1845 13.5473C19.1845 13.5473 19.8856 14.0525 19.2241 14.4072C18.565 14.7583 16.8721 15.6182 16.8721 15.6182L15.2003 14.994L14.3615 15.3673L15.8408 16.6518L15.8525 18.6503L16.7216 18.2642L17.298 16.576C17.298 16.576 19.0678 15.8947 19.7701 15.638C20.476 15.3872 20.3815 16.2458 20.3815 16.2458L20.0338 20.342L21.1888 19.8287L23.0905 14.3022C23.0905 14.3022 24.0985 13.8122 24.8078 13.3817C25.516 12.9512 25.7586 12.2372 25.7586 12.2372C25.7586 12.2372 25.068 11.9397 24.2723 12.1788C23.4766 12.4157 22.4395 12.838 22.4395 12.838L17.0588 10.5525L15.9073 11.0635ZM8.9738 3.20483L11.1986 4.977L11.8065 4.886L10.5955 3.29583C10.5955 3.29583 10.3318 2.96683 10.6865 2.88867C11.0435 2.80933 11.9465 2.625 11.9465 2.625L12.6255 3.1675L13.0828 3.09983L12.5648 2.27617L12.8378 1.36267L12.3956 1.42683L11.8718 2.12217C11.8718 2.12217 10.9525 2.2085 10.5908 2.23883C10.2268 2.26683 10.3831 1.876 10.3831 1.876L11.0808 0L10.4695 0.0898333L8.85947 2.43367C8.85947 2.43367 8.3228 2.53167 7.9343 2.6425C7.54463 2.75217 7.3393 3.05317 7.3393 3.05317C7.3393 3.05317 7.62513 3.28417 8.02763 3.276C8.43363 3.26783 8.9738 3.20483 8.9738 3.20483ZM19.9696 25.9758L18.53 25.2233L18.1986 25.3388L19.0515 26.1018C19.0515 26.1018 19.2335 26.257 19.0421 26.3398C18.8508 26.4215 18.3631 26.6222 18.3631 26.6222L17.9606 26.4425L17.7215 26.5288L18.0563 26.8858L18.0236 27.4073L18.2733 27.321L18.46 26.8975C18.46 26.8975 18.9663 26.747 19.1681 26.6933C19.3688 26.6385 19.3233 26.8742 19.3233 26.8742L19.1331 28L19.4656 27.8845L20.1178 26.3958C20.1178 26.3958 20.406 26.2827 20.6125 26.1788C20.819 26.075 20.9006 25.8837 20.9006 25.8837C20.9006 25.8837 20.7175 25.7833 20.4911 25.8335C20.2636 25.8813 19.9696 25.9758 19.9696 25.9758Z" fill="black"/>
</g>
</svg>
