<svg width="25" height="25" viewBox="0 0 25 25" fill="none" xmlns="http://www.w3.org/2000/svg">
<g id="bx:trip">
<path id="Vector" d="M15.4631 20.833H6.77148C5.33503 20.833 4.16732 19.6653 4.16732 18.2288C4.16732 16.7924 5.33503 15.6247 6.77148 15.6247H14.0631C16.0736 15.6247 17.709 13.9893 17.709 11.9788C17.709 9.96843 16.0736 8.33301 14.0631 8.33301H8.99961C8.61706 9.08289 8.14333 9.78263 7.58919 10.4163H14.0631C14.9246 10.4163 15.6256 11.1174 15.6256 11.9788C15.6256 12.8403 14.9246 13.5413 14.0631 13.5413H6.77148C4.18711 13.5413 2.08398 15.6445 2.08398 18.2288C2.08398 20.8132 4.18711 22.9163 6.77148 22.9163H16.7642C16.253 22.2734 15.8166 21.5745 15.4631 20.833ZM5.20898 2.08301C3.48607 2.08301 2.08398 3.48509 2.08398 5.20801C2.08398 8.52884 5.20898 10.4163 5.20898 10.4163C5.20898 10.4163 8.33398 8.5278 8.33398 5.20801C8.33398 3.48509 6.9319 2.08301 5.20898 2.08301ZM5.20898 6.77051C5.00373 6.77044 4.80049 6.72994 4.61088 6.65133C4.42127 6.57272 4.24901 6.45753 4.10391 6.31234C3.95882 6.16715 3.84375 5.99481 3.76526 5.80515C3.68678 5.61549 3.64642 5.41223 3.64648 5.20697C3.64655 5.00171 3.68705 4.79847 3.76566 4.60886C3.84427 4.41926 3.95946 4.24699 4.10465 4.1019C4.24984 3.9568 4.42218 3.84173 4.61184 3.76324C4.8015 3.68476 5.00477 3.6444 5.21003 3.64447C5.62456 3.6446 6.02207 3.80941 6.3151 4.10263C6.60812 4.39585 6.77266 4.79347 6.77253 5.20801C6.77239 5.62255 6.60758 6.02005 6.31436 6.31308C6.02114 6.6061 5.62352 6.77065 5.20898 6.77051Z" fill="white"/>
<path id="Vector_2" d="M19.791 14.583C18.0681 14.583 16.666 15.9851 16.666 17.708C16.666 21.0288 19.791 22.9163 19.791 22.9163C19.791 22.9163 22.916 21.0278 22.916 17.708C22.916 15.9851 21.5139 14.583 19.791 14.583ZM19.791 19.2705C19.5858 19.2704 19.3825 19.2299 19.1929 19.1513C19.0033 19.0727 18.831 18.9575 18.6859 18.8123C18.5409 18.6672 18.4258 18.4948 18.3473 18.3051C18.2688 18.1155 18.2284 17.9122 18.2285 17.707C18.2286 17.5017 18.2691 17.2985 18.3477 17.1089C18.4263 16.9193 18.5415 16.747 18.6867 16.6019C18.8319 16.4568 19.0042 16.3417 19.1939 16.2632C19.3835 16.1848 19.5868 16.1444 19.7921 16.1445C20.2066 16.1446 20.6041 16.3094 20.8971 16.6026C21.1902 16.8959 21.3547 17.2935 21.3546 17.708C21.3544 18.1225 21.1896 18.5201 20.8964 18.8131C20.6032 19.1061 20.2056 19.2706 19.791 19.2705Z" fill="white"/>
</g>
</svg>
