<svg width="50" height="50" viewBox="0 0 50 50" fill="none" xmlns="http://www.w3.org/2000/svg">
<g id="emojione-monotone:passenger-ship">
<path id="Vector" d="M46.3477 42.3211C48.3797 39.3805 48.4375 36.9219 48.4375 36.9219C48.4375 36.9219 47.282 36.1797 46.2648 35.5227V27.3234L38.6234 19.8758V14.7289C38.7219 14.6953 38.8211 14.6641 38.9164 14.6187C39.3741 14.8362 39.8745 14.9491 40.3812 14.9492C42.3195 14.9492 43.8969 13.3742 43.8969 11.4398C43.8969 9.50547 42.3195 7.93047 40.3812 7.93047C39.8758 7.93047 39.3844 8.04219 38.9164 8.26094C38.4585 8.04403 37.9582 7.93117 37.4516 7.93047C35.3617 7.93047 34.393 9.13047 34.0625 10.0391C33.4137 10.1476 32.8244 10.4824 32.3989 10.9841C31.9735 11.4858 31.7394 12.1219 31.7383 12.7797C31.7383 12.8234 31.7469 12.8641 31.75 12.907C31.6953 12.9383 31.6438 12.9805 31.5906 13.0172L29.8344 11.3039V8.53672C30.1894 8.49786 30.5358 8.40183 30.8602 8.25234C31.3281 8.47109 31.8195 8.58281 32.325 8.58281C34.2633 8.58281 35.8406 7.00781 35.8406 5.07344C35.8406 3.13906 34.2625 1.5625 32.3242 1.5625C31.825 1.5625 31.325 1.67656 30.8594 1.89375C30.4011 1.67773 29.9011 1.56467 29.3945 1.5625C27.3055 1.5625 26.3359 2.76172 26.0055 3.66953C25.5727 3.74271 25.1635 3.91726 24.8111 4.17892C24.4587 4.44057 24.1733 4.7819 23.9781 5.175C23.2846 5.43009 22.6383 5.79865 22.0656 6.26563L21.6305 6.61719V9.74766L17.2852 9.20625L11.0586 10.7586V13.3164L9.59375 13.682V16.2391L8.12891 16.6047V18.1781C7.78283 18.2079 7.43944 18.2632 7.10156 18.3438C7.08828 18.3469 7.07812 18.3555 7.06562 18.3594C7.05156 18.3633 7.0375 18.3633 7.02422 18.368C6.85078 18.432 2.77344 19.9836 1.59453 23.9922C1.59453 23.9922 2.83203 29.0461 6.28516 34.5102C8.18359 37.5141 9.60938 41.1602 10.4891 43.7508H1.5625V48.4383H48.4375V43.7508H45.4789C45.7164 43.3016 46.0016 42.8227 46.3477 42.3211ZM45.4836 28.0453V28.8367L45.1414 28.5437V28.0977L28.2961 13.2188V14.1008L27.7289 13.6141L26.4648 13.4563V12.5992L28.857 12.8977L45.4836 28.0453ZM23.9016 22.1086V22.8211C23.2875 22.5312 22.6773 22.2516 22.0703 21.9789V21.3695L24.5 21.6727L45.4828 34.6688V35.0211L45.1469 34.8062V34.6188L23.9016 22.1086ZM43.825 35.8086V36.2859L40.7742 34.7977V33.9109C41.9117 34.6086 42.9414 35.2508 43.825 35.8086ZM40.4078 33.6867V34.6188L39.0641 33.9625V32.8719C39.5258 33.1508 39.9742 33.4227 40.4078 33.6867ZM38.6977 32.6516V33.7844L35.3516 32.1516V30.6773C36.5195 31.3547 37.643 32.0172 38.6977 32.6516ZM34.9852 30.4656V31.9734L33.5703 31.2828V29.657C34.0492 29.9281 34.5211 30.1969 34.9852 30.4656ZM33.2047 29.4477V31.1039L29.2258 29.1625V27.2609C30.5773 27.9828 31.9117 28.718 33.2047 29.4477ZM28.8594 27.0656V28.9844L27.2727 28.2102V26.2344C27.8031 26.5094 28.3328 26.7852 28.8594 27.0656ZM22.5844 25.9227V23.9273C24.0133 24.593 25.4617 25.3062 26.9062 26.0477V28.0312L22.5844 25.9227ZM22.7367 28.0992C22.6867 28.1023 22.6313 28.1023 22.5852 28.1078V28.0305L22.7367 28.0992ZM17.2 19.9875C16.0384 19.5598 14.8586 19.1831 13.6641 18.8586L24.4937 20.2094L35.0727 27.3008L24.8391 20.9633L17.2 19.9875ZM21.4695 21.2945L20.4984 21.293C20.3648 21.2359 20.232 21.1789 20.0992 21.1234L21.4695 21.2945ZM12.8906 17.975L11.3727 18.3539C11.1133 18.3102 10.8672 18.2812 10.6195 18.25L14.4039 17.3063L22.9438 18.3711H16.0711L12.8906 17.975ZM45.1336 33.1047V32.6195L25.3664 18.8531V19.8547L24.8516 19.5094L24.7742 19.4578L23.5352 19.3031V18.4453L25.9539 18.7469L45.4836 32.4617V33.3391L45.1336 33.1047ZM45.1023 30.8047V30.2648L26.8313 16.0437V16.9742L26.2508 16.5344L25 16.3789V15.5227L27.4055 15.8227L45.4836 30.2539V31.093L45.1023 30.8047ZM37.4516 18.7328L34.8461 16.1914C35.7617 16.2328 36.6648 16.5914 37.4516 17.357V18.7328ZM34.5219 11.1727H35.0266L35.1008 10.6727C35.1109 10.6086 35.3586 9.10156 37.4516 9.10156C37.8555 9.10156 38.2492 9.21172 38.6219 9.42812L38.9164 9.59922L39.2109 9.42812C39.5649 9.21687 39.969 9.10412 40.3812 9.10156C41.0018 9.10156 41.597 9.34763 42.0363 9.78582C42.4757 10.224 42.7233 10.8185 42.725 11.4391C42.7233 12.0596 42.4757 12.6541 42.0363 13.0923C41.597 13.5305 41.0018 13.7766 40.3812 13.7766C39.9691 13.7743 39.565 13.6618 39.2109 13.4508L38.9164 13.2797L38.6219 13.4508C38.5094 13.5156 38.393 13.5555 38.2773 13.6L38.2687 13.5922C37.2547 12.6047 36.007 12.0828 34.6633 12.0828C34.1008 12.0828 33.5312 12.1828 32.9719 12.3633C33.0634 12.022 33.2649 11.7205 33.5451 11.5052C33.8253 11.29 34.1686 11.1731 34.5219 11.1727ZM34.6625 13.2563C35.6406 13.2563 36.6125 13.6172 37.4508 14.4336V15.8953C36.2828 14.7586 34.8594 14.5188 33.518 14.8969L32.475 13.8797C33.1719 13.493 33.9148 13.2563 34.6625 13.2563ZM26.4648 4.80312L26.9609 4.79688L27.0438 4.30859C27.0711 4.14844 27.3687 2.73438 29.3945 2.73438C29.8065 2.73649 30.2103 2.84899 30.5641 3.06016L30.8594 3.23281L31.1547 3.06016C31.5084 2.84899 31.9123 2.73649 32.3242 2.73438C32.9447 2.73437 33.5399 2.98044 33.9793 3.41863C34.4187 3.85682 34.6663 4.45136 34.668 5.07188C34.6663 5.69239 34.4187 6.28693 33.9793 6.72512C33.5399 7.16331 32.9447 7.40938 32.3242 7.40938C31.912 7.40693 31.5079 7.29418 31.1539 7.08281L30.8594 6.9125L30.5648 7.08359C30.3385 7.21446 30.091 7.30463 29.8336 7.35V6.68203L29.4789 6.3375C28.5391 5.42109 27.3977 4.91172 26.1648 4.84141C26.2633 4.81873 26.3638 4.8059 26.4648 4.80312ZM22.8031 7.17656C23.7227 6.43281 24.8023 5.99844 25.8742 5.99844C26.8523 5.99844 27.8242 6.36016 28.6625 7.17656V8.63828C26.9047 6.92656 24.5609 7.21641 22.8031 8.63828V7.17656ZM28.6625 10.0992V10.6242L23.0375 9.92344C24.7648 8.65937 26.9813 8.4625 28.6625 10.0992ZM11.8406 11.3687L17.3328 9.99922L28.8492 11.4352L35.0648 17.4977L29.1992 12.1531L17.2852 10.6672L11.8398 12.0258V11.3687H11.8406ZM11.8406 12.8305L17.3328 11.4602L25.8719 12.525H19.0008L15.8211 12.1281L11.8406 13.1211V12.8305ZM10.3758 14.2922L15.868 12.9219L27.3977 14.3602L35.1352 20.9937L27.7211 15.075L15.8211 13.5906L10.3758 14.9492V14.2922ZM10.3758 15.7539L15.868 14.3836L24.4086 15.4484H17.5375L14.3555 15.0516L10.3758 16.0445V15.7539ZM8.91094 17.2148L14.4039 15.8453L25.9469 17.2844L35.1391 24.2422L26.2437 17.9961L14.3562 16.5133L8.91172 17.8719V17.2148H8.91094ZM7.55234 33.6547C4.65781 29.075 3.39219 25.1734 3.11016 24.2297C3.76719 22.2812 5.33359 21.0586 6.41484 20.4109C6.30078 22.6758 6.35781 27.3922 8.16094 32.6641C8.79219 34.5086 9.29375 36.1633 9.69766 37.6422C9.06875 36.2891 8.35391 34.9242 7.55234 33.6547ZM9.5875 32.1438C7.65703 26.5 7.84531 21.4055 7.975 19.7617C8.31599 19.7154 8.65979 19.693 9.00391 19.6945C12.268 19.6945 17.0906 21.3969 22.218 23.7586V25.7437L20.9703 25.1352L20.9789 27.3047L22.218 27.8648V28.1898C21.8891 28.3102 21.7898 28.532 22.0062 28.832C22.4562 29.45 24.0555 30.1625 25.5844 30.4203C26.593 30.5922 27.3063 30.5203 27.5531 30.275L28.8594 30.8648V30.9047C28.7172 31.0055 28.6977 31.1563 28.8359 31.3508C29.2117 31.8805 30.5914 32.5273 31.9211 32.7945C32.5141 32.9141 32.9875 32.9328 33.3055 32.875L34.7008 33.5055C34.6839 33.6043 34.7063 33.7058 34.7633 33.7883C35.0906 34.3258 36.343 35.0063 37.5688 35.3055C38.1539 35.4492 38.6203 35.4766 38.9172 35.4109L40.1492 35.968C40.1419 36.0432 40.1637 36.1185 40.2102 36.1781C40.5125 36.6203 41.6672 37.2086 42.7969 37.4883C43.218 37.5938 43.575 37.6406 43.8414 37.6359L45.1469 38.2258L45.1477 36.932L44.1906 36.4648V36.0414C45.0864 36.6082 45.9779 37.182 46.8648 37.7625C46.7375 38.3687 46.3414 39.6398 45.1164 41.4133C44.6044 42.1514 44.1586 42.9333 43.7844 43.75H12.5625C12.218 41.3328 11.4219 37.5039 9.5875 32.1438ZM6.11016 11.6195C5.97734 10.5008 7.77266 9.82812 7.77266 9.82812C6.03516 9.73906 5.58047 11.0266 5.58047 11.0266C4.12656 11.3797 4.20781 12.3977 4.20781 12.3977C4.83047 11.3203 6.11016 11.6195 6.11016 11.6195ZM6.50937 5.76484C7.01719 4.76016 8.88672 5.18828 8.88672 5.18828C7.4875 4.15625 6.39687 4.97891 6.39687 4.97891C4.98906 4.47266 4.49219 5.36484 4.49219 5.36484C5.60781 4.80938 6.50937 5.76484 6.50937 5.76484Z" fill="white"/>
</g>
</svg>
