<svg width="50" height="50" viewBox="0 0 50 50" fill="none" xmlns="http://www.w3.org/2000/svg">
<g id="fontisto:sait-boat" clip-path="url(#clip0_1_155)">
<path id="Vector" d="M25.7954 29.8955C25.8503 30.1196 26.0043 30.3155 26.2239 30.4404C26.4434 30.5653 26.7105 30.6091 26.9668 30.5622H26.9597L42.8121 27.5455C42.9402 27.5217 43.0614 27.4752 43.1682 27.4089C43.2751 27.3426 43.3654 27.258 43.4335 27.1601L43.4359 27.1559C43.5075 27.0569 43.5557 26.9464 43.5778 26.8308C43.5999 26.7153 43.5954 26.597 43.5645 26.483L43.5668 26.4893C39.2502 13.6372 30.5526 3.98926 19.6883 -0.0107422H19.5954C19.4472 -0.0107734 19.3009 0.0183593 19.1674 0.0744992C19.0338 0.130639 18.9163 0.212348 18.8237 0.313578C18.7312 0.414807 18.6658 0.532964 18.6324 0.659301C18.5991 0.785637 18.5986 0.916918 18.6311 1.04342L18.6287 1.03717L25.7954 29.8955ZM10.4645 33.6872L22.9859 31.3163C23.2404 31.2684 23.4634 31.1353 23.6073 30.9455L23.6097 30.9413C23.6839 30.8477 23.7338 30.741 23.756 30.6288C23.7782 30.5165 23.7722 30.4013 23.7383 30.2913L23.7406 30.2976L19.7526 14.2288C19.7144 14.0593 19.6173 13.9042 19.4745 13.7849C19.3317 13.6655 19.1502 13.5877 18.9549 13.5622H18.9502C18.9074 13.5527 18.8634 13.5478 18.8192 13.5476H18.7835H18.7859C18.6142 13.5475 18.4454 13.5867 18.2963 13.6612C18.1472 13.7358 18.023 13.8431 17.9359 13.9726L17.9335 13.9768L17.6549 14.3934C13.9454 19.9059 10.7287 24.6747 9.27398 32.7163C9.24994 32.8543 9.26397 32.9954 9.31492 33.1277C9.36586 33.2599 9.45224 33.3796 9.56684 33.4768C9.69111 33.5671 9.83667 33.6322 9.99309 33.6675C10.1495 33.7028 10.3129 33.7074 10.4716 33.6809H10.4645V33.6872ZM9.25255 42.4622C9.45342 42.459 9.6462 42.3924 9.79541 42.2747L10.3668 41.7747C11.4485 40.8345 12.9113 40.3069 14.4359 40.3069C15.9605 40.3069 17.4233 40.8345 18.5049 41.7747L19.0764 42.2747C19.2138 42.3941 19.3994 42.4614 19.593 42.4622H19.6168C19.8177 42.459 20.0105 42.3924 20.1597 42.2747L20.7668 41.7434C21.8445 40.8129 23.2981 40.2919 24.8121 40.2934C26.3978 40.2934 27.8311 40.8538 28.874 41.758L29.4311 42.2455C29.5765 42.3691 29.7691 42.4411 29.9716 42.4476H29.974C30.1748 42.4444 30.3676 42.3778 30.5168 42.2601L31.074 41.7726C32.1557 40.8324 33.6184 40.3048 35.143 40.3048C36.6677 40.3048 38.1304 40.8324 39.2121 41.7726L39.7835 42.2726C39.9168 42.3872 40.0978 42.4601 40.3002 42.4601H40.3264H40.324C40.5248 42.4569 40.7176 42.3903 40.8668 42.2726L41.4383 41.7726C41.9886 41.2915 42.6458 40.9143 43.3692 40.6643L43.4073 40.6518C43.4573 40.5643 43.5216 40.4955 43.5716 40.408L49.4954 29.8393C49.5826 29.6789 49.6178 29.5006 49.5972 29.3239C49.5766 29.1473 49.5011 28.9789 49.3787 28.8372L49.3811 28.8393C49.2541 28.6981 49.0843 28.591 48.8911 28.5302C48.6978 28.4694 48.4889 28.4574 48.2883 28.4955L48.2954 28.4934L6.23351 36.4768C6.04483 36.5136 5.86755 36.5859 5.7139 36.6885C5.56025 36.7912 5.4339 36.9218 5.34357 37.0713C5.25324 37.2209 5.2011 37.3858 5.19073 37.5547C5.18035 37.7236 5.21201 37.8925 5.28351 38.0497L5.28113 38.0413L6.62636 41.0288C7.45017 41.3309 8.15255 41.7497 8.74303 42.2643C8.79614 42.3258 8.86486 42.3757 8.94378 42.4101C9.02269 42.4444 9.10965 42.4623 9.19779 42.4622L9.25732 42.4601H9.25494L9.25255 42.4622ZM48.6216 46.8559C47.8121 46.1538 46.7002 45.7226 45.4716 45.7226C44.243 45.7226 43.1287 46.1559 42.3216 46.858L41.7502 47.358C41.3656 47.6904 40.8467 47.8769 40.3061 47.8769C39.7655 47.8769 39.2467 47.6904 38.8621 47.358L38.2906 46.858C37.4811 46.1559 36.3692 45.7247 35.1406 45.7247C33.9121 45.7247 32.7978 46.158 31.9906 46.8601L31.4335 47.3476C31.0498 47.679 30.5322 47.8647 29.993 47.8643H29.9787C29.7113 47.8645 29.4465 47.8176 29.2003 47.7263C28.954 47.635 28.7313 47.5013 28.5454 47.333L27.9859 46.8434C27.1453 46.1148 26.0096 45.7066 24.8264 45.708C23.6026 45.708 22.4954 46.1351 21.6835 46.8288L21.0764 47.3601C20.6918 47.6925 20.1729 47.879 19.6323 47.879C19.0917 47.879 18.5729 47.6925 18.1883 47.3601L17.6168 46.8601C16.8073 46.158 15.6954 45.7247 14.4645 45.7247C13.2335 45.7247 12.1216 46.158 11.3121 46.8601L10.7407 47.3601C10.3561 47.6925 9.83722 47.879 9.2966 47.879C8.75599 47.879 8.23715 47.6925 7.85255 47.3601C6.89541 46.5351 5.57874 46.0247 4.12636 46.0247C2.67398 46.0247 1.3597 46.5351 0.400173 47.3601C0.28643 47.458 0.196096 47.5747 0.134434 47.7035C0.072772 47.8323 0.0410156 47.9705 0.0410156 48.1101C0.0410156 48.2497 0.072772 48.3879 0.134434 48.5167C0.196096 48.6454 0.28643 48.7622 0.400173 48.8601C0.625731 49.0592 0.932119 49.1723 1.25255 49.1747H1.26208C1.57764 49.1755 1.88071 49.0669 2.10493 48.8726C2.36956 48.6398 2.68416 48.455 3.03066 48.329C3.37716 48.2029 3.74872 48.138 4.12398 48.138C4.49924 48.138 4.8708 48.2029 5.2173 48.329C5.5638 48.455 5.8784 48.6398 6.14303 48.8726C6.95255 49.5726 8.06446 50.0059 9.29303 50.0059C10.5216 50.0059 11.6359 49.5726 12.443 48.8726L13.0145 48.3726C13.3991 48.0401 13.9179 47.8537 14.4585 47.8537C14.9991 47.8537 15.518 48.0401 15.9026 48.3726L16.474 48.8726C17.274 49.5726 18.3787 50.0059 19.6002 50.0059H19.6264H19.624H19.6311C20.8502 50.0059 21.9549 49.5788 22.7597 48.8851L23.3835 48.3538C23.7681 48.0214 24.2869 47.835 24.8276 47.835C25.3682 47.835 25.887 48.0214 26.2716 48.3538L26.8287 48.8413C27.6335 49.5497 28.7478 49.9872 29.9787 49.9893H30.0049C31.2264 49.9893 32.3311 49.5559 33.1287 48.8559L33.6859 48.3684C34.0705 48.036 34.5893 47.8496 35.1299 47.8496C35.6706 47.8496 36.1894 48.036 36.574 48.3684L37.1454 48.8684C37.9549 49.5684 39.0668 50.0018 40.2954 50.0018C41.524 50.0018 42.6383 49.5684 43.4454 48.8684L44.0168 48.3684C44.4014 48.036 44.9203 47.8496 45.4609 47.8496C46.0015 47.8496 46.5203 48.036 46.9049 48.3684C47.1216 48.5559 47.4192 48.6705 47.7502 48.6705H47.7764C47.9331 48.6705 48.0883 48.6426 48.2323 48.5885C48.3764 48.5344 48.5064 48.4553 48.6145 48.3559C48.7295 48.2589 48.821 48.1427 48.8836 48.0141C48.9461 47.8855 48.9785 47.7472 48.9787 47.6074C48.979 47.4676 48.947 47.3293 48.8849 47.2005C48.8227 47.0718 48.7315 46.9553 48.6168 46.858L48.6216 46.8559Z" fill="white"/>
<path id="Vector_2" d="M4.06688 43.8398H4.07641C4.86212 43.8398 5.57165 44.1189 6.08593 44.571C6.89545 45.2731 8.00736 45.7044 9.23593 45.7044C10.4645 45.7044 11.5788 45.271 12.3859 44.5689L12.9574 44.0689C13.342 43.7365 13.8608 43.5501 14.4014 43.5501C14.942 43.5501 15.4609 43.7365 15.8455 44.0689L16.4169 44.5689C17.2169 45.271 18.3216 45.7044 19.5455 45.7044H19.5693H19.5669H19.574C20.7931 45.7044 21.8978 45.2773 22.7026 44.5835L23.3264 44.0523C23.7139 43.7173 24.2376 43.5307 24.7822 43.5334C25.3269 43.5362 25.8481 43.728 26.2312 44.0669L26.7883 44.5544C27.5931 45.2606 28.7074 45.7002 29.9383 45.7023H29.9621C31.1835 45.7023 32.2883 45.2689 33.0883 44.5669L33.6455 44.0794C34.03 43.7469 34.5489 43.5605 35.0895 43.5605C35.6301 43.5605 36.149 43.7469 36.5336 44.0794L37.105 44.5794C37.9145 45.2814 39.0264 45.7127 40.255 45.7127C41.4835 45.7127 42.5978 45.2794 43.405 44.5773L43.9764 44.0773C44.361 43.7448 44.8798 43.5584 45.4205 43.5584C45.9611 43.5584 46.4799 43.7448 46.8645 44.0773C47.0812 44.2648 47.3788 44.3794 47.7074 44.3794H47.7336C47.8903 44.3793 48.0454 44.3514 48.1895 44.2974C48.3336 44.2433 48.4636 44.1642 48.5716 44.0648C48.6854 43.9669 48.7757 43.8501 48.8374 43.7214C48.899 43.5926 48.9308 43.4544 48.9308 43.3148C48.9308 43.1752 48.899 43.037 48.8374 42.9082C48.7757 42.7794 48.6854 42.6627 48.5716 42.5648C47.7621 41.8627 46.6502 41.4314 45.4216 41.4314C44.1931 41.4314 43.0788 41.8648 42.2716 42.5669L41.7002 43.0669C41.3156 43.3993 40.7968 43.5857 40.2562 43.5857C39.7155 43.5857 39.1967 43.3993 38.8121 43.0669L38.2407 42.5669C37.4312 41.8648 36.3193 41.4335 35.0907 41.4335C33.8621 41.4335 32.7478 41.8669 31.9407 42.5689L31.3835 43.0564C30.9999 43.3879 30.4822 43.5736 29.9431 43.5731H29.9288C29.6613 43.5734 29.3966 43.5264 29.1503 43.4352C28.904 43.3439 28.6813 43.2101 28.4955 43.0419L27.9359 42.5523C27.0954 41.8251 25.9608 41.4178 24.7788 41.4189C23.555 41.4189 22.4455 41.846 21.6359 42.5398L21.0288 43.071C20.6442 43.4035 20.1254 43.5899 19.5847 43.5899C19.0441 43.5899 18.5253 43.4035 18.1407 43.071L17.5693 42.571C16.7597 41.8689 15.6478 41.4356 14.4169 41.4356C13.1859 41.4356 12.074 41.8689 11.2645 42.571L10.6931 43.071C10.3085 43.4035 9.78964 43.5899 9.24903 43.5899C8.70841 43.5899 8.18958 43.4035 7.80498 43.071C6.84784 42.246 5.53117 41.7356 4.07879 41.7356C2.62641 41.7356 1.31212 42.246 0.352598 43.071C0.237381 43.1682 0.145736 43.2847 0.0831396 43.4136C0.0205434 43.5424 -0.0117187 43.681 -0.0117188 43.821C-0.0117187 43.9611 0.0205434 44.0996 0.0831396 44.2285C0.145736 44.3574 0.237381 44.4739 0.352598 44.571C0.577766 44.771 0.884202 44.8848 1.20498 44.8877H1.2145C1.53006 44.8885 1.83313 44.7799 2.05736 44.5856C2.55974 44.1252 3.2645 43.8377 4.05022 43.8377H4.06212L4.06688 43.8398Z" fill="white"/>
</g>
<defs>
<clipPath id="clip0_1_155">
<rect width="50" height="50" fill="white"/>
</clipPath>
</defs>
</svg>
