<svg width="12" height="4" viewBox="0 0 12 4" fill="none" xmlns="http://www.w3.org/2000/svg">
<g id="More Icon">
<path id="Shape" fill-rule="evenodd" clip-rule="evenodd" d="M1.73336 0.720002C2.37401 0.720002 2.89336 1.23935 2.89336 1.88C2.89336 2.52065 2.37401 3.04 1.73336 3.04C1.09271 3.04 0.573364 2.52065 0.573364 1.88C0.573364 1.23935 1.09271 0.720002 1.73336 0.720002ZM5.9867 0.719788C6.62735 0.719788 7.1467 1.23914 7.1467 1.87979C7.1467 2.52044 6.62735 3.03979 5.9867 3.03979C5.34605 3.03979 4.8267 2.52044 4.8267 1.87979C4.8267 1.23914 5.34605 0.719788 5.9867 0.719788ZM10.24 0.719788C10.8807 0.719788 11.4 1.23914 11.4 1.87979C11.4 2.52044 10.8807 3.03979 10.24 3.03979C9.59938 3.03979 9.08003 2.52044 9.08003 1.87979C9.08003 1.23914 9.59938 0.719788 10.24 0.719788Z" fill="#262626"/>
</g>
</svg>
