<svg width="22" height="156" viewBox="0 0 22 156" fill="none" xmlns="http://www.w3.org/2000/svg">
<g id="Social">
<g id="001-facebook">
<path id="Path" d="M14.1116 3.29509H15.9233V0.139742C15.6107 0.0967442 14.5358 0 13.2839 0C10.6718 0 8.88248 1.643 8.88248 4.66274V7.44186H6V10.9693H8.88248V19.845H12.4165V10.9701H15.1824L15.6215 7.44269H12.4157V5.01251C12.4165 3.99297 12.6911 3.29509 14.1116 3.29509Z" fill="black"/>
</g>
<g id="003-twitter">
<path id="Path_2" d="M22 69.9611C21.1819 70.32 20.3101 70.5578 19.4013 70.6733C20.3363 70.1151 21.0499 69.2378 21.3854 68.1805C20.5136 68.7002 19.5511 69.0673 18.5254 69.2722C17.6976 68.3908 16.5179 67.845 15.2309 67.845C12.7339 67.845 10.7236 69.8717 10.7236 72.3563C10.7236 72.7138 10.7539 73.0576 10.8281 73.3848C7.0785 73.202 3.76062 71.4048 1.53175 68.6672C1.14262 69.3423 0.914375 70.1151 0.914375 70.947C0.914375 72.509 1.71875 73.8936 2.91775 74.6952C2.19312 74.6815 1.48225 74.4711 0.88 74.1397C0.88 74.1535 0.88 74.1713 0.88 74.1892C0.88 76.381 2.44338 78.2015 4.4935 78.6208C4.12638 78.7212 3.72625 78.7693 3.311 78.7693C3.02225 78.7693 2.73075 78.7528 2.45712 78.6923C3.0415 80.4785 4.69975 81.7916 6.6715 81.8342C5.137 83.0346 3.18863 83.7578 1.07938 83.7578C0.7095 83.7578 0.35475 83.7413 0 83.696C1.99787 84.9843 4.36563 85.72 6.919 85.72C15.2185 85.72 19.756 78.845 19.756 72.8857C19.756 72.6863 19.7491 72.4938 19.7395 72.3027C20.6346 71.6675 21.3867 70.8741 22 69.9611Z" fill="black"/>
</g>
<g id="004-instagram">
<path id="Shape" fill-rule="evenodd" clip-rule="evenodd" d="M6.875 133.72H15.125C18.9214 133.72 22 136.799 22 140.595V148.845C22 152.641 18.9214 155.72 15.125 155.72H6.875C3.07862 155.72 0 152.641 0 148.845V140.595C0 136.799 3.07862 133.72 6.875 133.72ZM15.125 153.657C17.7787 153.657 19.9375 151.499 19.9375 148.845V140.595C19.9375 137.941 17.7787 135.782 15.125 135.782H6.875C4.22125 135.782 2.0625 137.941 2.0625 140.595V148.845C2.0625 151.499 4.22125 153.657 6.875 153.657H15.125Z" fill="black"/>
<path id="Shape_2" fill-rule="evenodd" clip-rule="evenodd" d="M5.5 144.72C5.5 141.683 7.96263 139.22 11 139.22C14.0374 139.22 16.5 141.683 16.5 144.72C16.5 147.757 14.0374 150.22 11 150.22C7.96263 150.22 5.5 147.757 5.5 144.72ZM7.5625 144.72C7.5625 146.615 9.10525 148.157 11 148.157C12.8948 148.157 14.4375 146.615 14.4375 144.72C14.4375 142.824 12.8948 141.282 11 141.282C9.10525 141.282 7.5625 142.824 7.5625 144.72Z" fill="black"/>
<circle id="Oval" cx="16.9124" cy="138.807" r="0.732875" fill="black"/>
</g>
</g>
</svg>
